<?xml version="1.0" encoding="UTF-8" standalone="no"?>
<svg width="16px" height="16px" viewBox="0 0 16 16" version="1.1" xmlns="http://www.w3.org/2000/svg" xmlns:xlink="http://www.w3.org/1999/xlink" xmlns:sketch="http://www.bohemiancoding.com/sketch/ns">
    <!-- Generator: Sketch 3.4.4 (17249) - http://www.bohemiancoding.com/sketch -->
    <title>info</title>
    <desc>Created with Sketch.</desc>
    <defs></defs>
    <g id="Page-1" stroke="none" stroke-width="1" fill="none" fill-rule="evenodd" sketch:type="MSPage">
        <g id="info" sketch:type="MSArtboardGroup">
            <path d="M10.3333333,12.375 L10.3333333,10.9166667 C10.3333333,10.8315968 10.3059899,10.761719 10.2513021,10.7070313 C10.1966143,10.6523435 10.1267365,10.625 10.0416667,10.625 L9.16666667,10.625 L9.16666667,5.95833333 C9.16666667,5.87326346 9.13932319,5.80338569 9.08463542,5.74869792 C9.02994764,5.69401014 8.96006987,5.66666667 8.875,5.66666667 L5.95833333,5.66666667 C5.87326346,5.66666667 5.80338569,5.69401014 5.74869792,5.74869792 C5.69401014,5.80338569 5.66666667,5.87326346 5.66666667,5.95833333 L5.66666667,7.41666667 C5.66666667,7.50173654 5.69401014,7.57161431 5.74869792,7.62630208 C5.80338569,7.68098986 5.87326346,7.70833333 5.95833333,7.70833333 L6.83333333,7.70833333 L6.83333333,10.625 L5.95833333,10.625 C5.87326346,10.625 5.80338569,10.6523435 5.74869792,10.7070313 C5.69401014,10.761719 5.66666667,10.8315968 5.66666667,10.9166667 L5.66666667,12.375 C5.66666667,12.4600699 5.69401014,12.5299476 5.74869792,12.5846354 C5.80338569,12.6393232 5.87326346,12.6666667 5.95833333,12.6666667 L10.0416667,12.6666667 C10.1267365,12.6666667 10.1966143,12.6393232 10.2513021,12.5846354 C10.3059899,12.5299476 10.3333333,12.4600699 10.3333333,12.375 L10.3333333,12.375 Z M9.16666667,4.20833333 L9.16666667,2.75 C9.16666667,2.66493013 9.13932319,2.59505236 9.08463542,2.54036458 C9.02994764,2.48567681 8.96006987,2.45833333 8.875,2.45833333 L7.125,2.45833333 C7.03993013,2.45833333 6.97005236,2.48567681 6.91536458,2.54036458 C6.86067681,2.59505236 6.83333333,2.66493013 6.83333333,2.75 L6.83333333,4.20833333 C6.83333333,4.2934032 6.86067681,4.36328098 6.91536458,4.41796875 C6.97005236,4.47265652 7.03993013,4.5 7.125,4.5 L8.875,4.5 C8.96006987,4.5 9.02994764,4.47265652 9.08463542,4.41796875 C9.13932319,4.36328098 9.16666667,4.2934032 9.16666667,4.20833333 L9.16666667,4.20833333 Z M15,8 C15,9.26997163 14.6870691,10.4411839 14.0611979,11.5136719 C13.4353267,12.5861599 12.5861599,13.4353267 11.5136719,14.0611979 C10.4411839,14.6870691 9.26997163,15 8,15 C6.73002837,15 5.55881613,14.6870691 4.48632812,14.0611979 C3.41384012,13.4353267 2.56467327,12.5861599 1.93880208,11.5136719 C1.3129309,10.4411839 1,9.26997163 1,8 C1,6.73002837 1.3129309,5.55881613 1.93880208,4.48632812 C2.56467327,3.41384012 3.41384012,2.56467327 4.48632812,1.93880208 C5.55881613,1.3129309 6.73002837,1 8,1 C9.26997163,1 10.4411839,1.3129309 11.5136719,1.93880208 C12.5861599,2.56467327 13.4353267,3.41384012 14.0611979,4.48632812 C14.6870691,5.55881613 15,6.73002837 15,8 L15,8 Z" id="i-Icon-Copy-12" fill="#4A90E2" sketch:type="MSShapeGroup"></path>
            <rect id="Rectangle-10-Copy-7" sketch:type="MSShapeGroup" x="0" y="0" width="16" height="16"></rect>
        </g>
    </g>
</svg>
