<?xml version="1.0" encoding="UTF-8" standalone="no"?>
<svg width="16px" height="16px" viewBox="0 0 16 16" version="1.1" xmlns="http://www.w3.org/2000/svg" xmlns:xlink="http://www.w3.org/1999/xlink">
    <!-- Generator: Sketch 3.7.1 (28215) - http://www.bohemiancoding.com/sketch -->
    <title>Group</title>
    <desc>Created with Sketch.</desc>
    <defs></defs>
    <g id="Page-1" stroke="none" stroke-width="1" fill="none" fill-rule="evenodd">
        <g id="Group">
            <path d="M14.2928932,9.09289322 L9.09289322,14.2928932 C8.70236893,14.6834175 8.70236893,15.3165825 9.09289322,15.7071068 C9.48341751,16.0976311 10.1165825,16.0976311 10.5071068,15.7071068 L15.7071068,10.5071068 C16.0976311,10.1165825 16.0976311,9.48341751 15.7071068,9.09289322 C15.3165825,8.70236893 14.6834175,8.70236893 14.2928932,9.09289322 L14.2928932,9.09289322 L14.2928932,9.09289322 Z" id="Line" fill="#323536" transform="translate(12.400000, 12.400000) scale(-1, 1) translate(-12.400000, -12.400000) "></path>
            <path d="M6,10 L6,10 C8.209139,10 10,8.209139 10,6 C10,3.790861 8.209139,2 6,2 C3.790861,2 2,3.790861 2,6 C2,8.209139 3.790861,10 6,10 L6,10 L6,10 Z M6,12 L6,12 C2.6862915,12 0,9.3137085 0,6 C0,2.6862915 2.6862915,0 6,0 C9.3137085,0 12,2.6862915 12,6 C12,9.3137085 9.3137085,12 6,12 L6,12 L6,12 Z" id="Oval-1" fill="#323536" transform="translate(6.000000, 6.000000) scale(-1, 1) translate(-6.000000, -6.000000) "></path>
            <rect id="Rectangle-10-Copy-2" transform="translate(8.000000, 8.000000) scale(-1, 1) translate(-8.000000, -8.000000) " x="0" y="0" width="16" height="16"></rect>
        </g>
    </g>
</svg>