<?xml version="1.0" encoding="UTF-8" standalone="no"?>
<svg width="16px" height="16px" viewBox="0 0 16 16" version="1.1" xmlns="http://www.w3.org/2000/svg" xmlns:xlink="http://www.w3.org/1999/xlink">
    <!-- Generator: Sketch 3.7 (28169) - http://www.bohemiancoding.com/sketch -->
    <title>magnifying_glass_grey_small</title>
    <desc>Created with Sketch.</desc>
    <defs></defs>
    <g id="Page-1" stroke="none" stroke-width="1" fill="none" fill-rule="evenodd">
        <g id="magnifying_glass_grey_small">
            <g id="magnifying_glass_grey" transform="translate(8.000000, 8.000000) scale(-1, 1) translate(-8.000000, -8.000000) ">
                <g id="Group" fill="#FFFFFF">
                    <path d="M5.49289322,9.09289322 L0.292893219,14.2928932 C-0.0976310729,14.6834175 -0.0976310729,15.3165825 0.292893219,15.7071068 C0.683417511,16.0976311 1.31658249,16.0976311 1.70710678,15.7071068 L6.90710678,10.5071068 C7.29763107,10.1165825 7.29763107,9.48341751 6.90710678,9.09289322 C6.51658249,8.70236893 5.88341751,8.70236893 5.49289322,9.09289322 L5.49289322,9.09289322 Z" id="Line"></path>
                    <path d="M10,10 L10,10 C12.209139,10 14,8.209139 14,6 C14,3.790861 12.209139,2 10,2 C7.790861,2 6,3.790861 6,6 C6,8.209139 7.790861,10 10,10 L10,10 Z M10,12 L10,12 C6.6862915,12 4,9.3137085 4,6 C4,2.6862915 6.6862915,0 10,0 C13.3137085,0 16,2.6862915 16,6 C16,9.3137085 13.3137085,12 10,12 L10,12 Z" id="Oval-1"></path>
                </g>
                <rect id="Rectangle-10-Copy-2" x="0" y="0" width="16" height="16"></rect>
            </g>
        </g>
    </g>
</svg>