<?xml version="1.0" encoding="UTF-8" standalone="no"?>
<svg width="16px" height="16px" viewBox="0 0 16 16" version="1.1" xmlns="http://www.w3.org/2000/svg" xmlns:xlink="http://www.w3.org/1999/xlink" xmlns:sketch="http://www.bohemiancoding.com/sketch/ns">
    <!-- Generator: Sketch 3.4.4 (17249) - http://www.bohemiancoding.com/sketch -->
    <title>network</title>
    <desc>Created with Sketch.</desc>
    <defs></defs>
    <g id="Page-1" stroke="none" stroke-width="1" fill="none" fill-rule="evenodd" sketch:type="MSPage">
        <g id="network" sketch:type="MSArtboardGroup">
            <g id="Group" sketch:type="MSLayerGroup">
                <rect id="Rectangle-10-Copy-6" sketch:type="MSShapeGroup" x="0" y="0" width="16" height="16"></rect>
                <path d="M13,5 L13,5 C14.1045695,5 15,4.1045695 15,3 C15,1.8954305 14.1045695,1 13,1 C11.8954305,1 11,1.8954305 11,3 C11,4.1045695 11.8954305,5 13,5 L13,5 Z M13,6 L13,6 C11.3431458,6 10,4.65685425 10,3 C10,1.34314575 11.3431458,0 13,0 C14.6568542,0 16,1.34314575 16,3 C16,4.65685425 14.6568542,6 13,6 L13,6 Z" id="Shape" fill="#72787A" sketch:type="MSShapeGroup"></path>
                <path d="M13,15 L13,15 C14.1045695,15 15,14.1045695 15,13 C15,11.8954305 14.1045695,11 13,11 C11.8954305,11 11,11.8954305 11,13 C11,14.1045695 11.8954305,15 13,15 L13,15 Z M13,16 L13,16 C11.3431458,16 10,14.6568542 10,13 C10,11.3431458 11.3431458,10 13,10 C14.6568542,10 16,11.3431458 16,13 C16,14.6568542 14.6568542,16 13,16 L13,16 Z" id="Shape" fill="#72787A" sketch:type="MSShapeGroup"></path>
                <path d="M3,10 L3,10 C4.1045695,10 5,9.1045695 5,8 C5,6.8954305 4.1045695,6 3,6 C1.8954305,6 1,6.8954305 1,8 C1,9.1045695 1.8954305,10 3,10 L3,10 Z M3,11 L3,11 C1.34314575,11 0,9.65685425 0,8 C0,6.34314575 1.34314575,5 3,5 C4.65685425,5 6,6.34314575 6,8 C6,9.65685425 4.65685425,11 3,11 L3,11 Z" id="Shape" fill="#72787A" sketch:type="MSShapeGroup"></path>
                <path d="M10.2448542,3.54864425 L4.78487681,6.15095467 L5.21512319,7.05366617 L10.6751006,4.45135575 L10.2448542,3.54864425 L10.2448542,3.54864425 Z" id="Shape" fill="#72787A" sketch:type="MSShapeGroup"></path>
                <path d="M10.6777094,11.5464238 L5.21040108,9.01029528 L4.78959892,9.91744772 L10.2569072,12.4535762 L10.6777094,11.5464238 L10.6777094,11.5464238 Z" id="Shape" fill="#72787A" sketch:type="MSShapeGroup"></path>
            </g>
        </g>
    </g>
</svg>