<?xml version="1.0" encoding="UTF-8" standalone="no"?>
<svg width="24px" height="24px" viewBox="0 0 24 24" version="1.1" xmlns="http://www.w3.org/2000/svg" xmlns:xlink="http://www.w3.org/1999/xlink" xmlns:sketch="http://www.bohemiancoding.com/sketch/ns">
    <!-- Generator: Sketch 3.4.4 (17249) - http://www.bohemiancoding.com/sketch -->
    <title>person inactive</title>
    <desc>Created with Sketch.</desc>
    <defs></defs>
    <g id="Page-1" stroke="none" stroke-width="1" fill="none" fill-rule="evenodd" sketch:type="MSPage">
        <g id="person-inactive" sketch:type="MSArtboardGroup">
            <path d="M22.729,9.605 L22.729,9.605 C22.901,10.377 23,11.177 23,12 C23,15.124 21.684,17.94 19.584,19.942 L19.585,19.932 C14.912,18.002 14.541,17.277 14.414,17.022 L14.362,16.917 L14.362,15.845 L14.493,15.702 C15.077,15.063 15.539,14.211 15.829,13.237 L15.872,13.091 L15.989,12.995 C16.344,12.701 16.548,12.265 16.548,11.796 C16.548,11.476 16.454,11.177 16.267,10.911 L16.177,10.782 L16.177,10.345 L16.176,10.344 C15.7,10.102 15.262,9.797 14.869,9.441 C14.853,9.426 14.836,9.411 14.819,9.396 C14.442,9.046 14.109,8.65 13.831,8.214 C13.809,8.18 13.789,8.144 13.768,8.109 C13.653,7.921 13.548,7.727 13.455,7.526 C13.438,7.49 13.419,7.456 13.403,7.419 C13.302,7.191 13.214,6.956 13.142,6.713 C13.129,6.67 13.12,6.626 13.108,6.584 C13.053,6.383 13.009,6.179 12.975,5.971 C12.964,5.904 12.953,5.837 12.944,5.77 C12.912,5.517 12.889,5.261 12.889,5 C12.889,4.91 12.899,4.823 12.903,4.733 C12.618,4.696 12.319,4.673 12,4.673 C9.344,4.673 7.821,6.073 7.821,8.512 L7.821,10.782 L7.731,10.911 C7.548,11.174 7.451,11.48 7.451,11.796 C7.451,12.264 7.654,12.701 8.009,12.994 L8.125,13.09 L8.169,13.236 C8.459,14.211 8.922,15.063 9.506,15.701 L9.637,15.845 L9.637,16.917 L9.585,17.022 C9.458,17.277 9.088,18 4.414,19.932 L4.426,19.953 C2.319,17.951 1,15.13 1,12 C1,5.935 5.934,1 12,1 C12.763,1 13.509,1.079 14.229,1.228 C14.473,0.928 14.744,0.652 15.04,0.404 C14.067,0.149 13.052,0 12,0 C5.373,0 0,5.373 0,12 C0,16.841 2.872,21.001 7,22.898 C8.523,23.599 10.213,24 12,24 C13.787,24 15.476,23.599 17,22.898 C21.127,21.001 24,16.841 24,12 C24,10.88 23.834,9.801 23.548,8.773 C23.302,9.076 23.028,9.355 22.729,9.605" id="Fill-1" fill="#323536" sketch:type="MSShapeGroup"></path>
            <path d="M21.707,3.707 L21,3 L19.353,4.646 L17.707,3 L17,3.707 L18.646,5.353 L17,7 L17.707,7.707 L19.353,6.061 L21,7.707 L21.707,7 L20.061,5.353 L21.707,3.707 Z" id="Fill-58" fill="#FEFEFE" sketch:type="MSShapeGroup"></path>
            <path d="M21.464,6.568 L20.757,7.275 L19.11,5.629 L17.464,7.275 L16.757,6.568 L18.403,4.922 L16.757,3.275 L17.464,2.568 L19.11,4.214 L20.757,2.568 L21.464,3.275 L19.818,4.922 L21.464,6.568 Z M19,0 C16.239,0 14,2.238 14,5 C14,7.762 16.239,10 19,10 C21.761,10 24,7.762 24,5 C24,2.238 21.761,0 19,0 L19,0 Z" id="Fill-19" fill="#CB2014" sketch:type="MSShapeGroup"></path>
        </g>
    </g>
</svg>