<?xml version="1.0" encoding="UTF-8" standalone="no"?>
<svg width="24px" height="24px" viewBox="0 0 24 24" version="1.1" xmlns="http://www.w3.org/2000/svg" xmlns:xlink="http://www.w3.org/1999/xlink" xmlns:sketch="http://www.bohemiancoding.com/sketch/ns">
    <!-- Generator: Sketch 3.4.4 (17249) - http://www.bohemiancoding.com/sketch -->
    <title>person active</title>
    <desc>Created with Sketch.</desc>
    <defs></defs>
    <g id="Page-1" stroke="none" stroke-width="1" fill="none" fill-rule="evenodd" sketch:type="MSPage">
        <g id="person-active" sketch:type="MSArtboardGroup">
            <path d="M18.494,6.66 L16.513,4.679 L17.22,3.972 L18.494,5.246 L21.116,2.623 L21.823,3.33 L18.494,6.66 Z M19,0 C16.239,0 14,2.239 14,5 C14,7.762 16.239,10 19,10 C21.762,10 24,7.762 24,5 C24,2.239 21.762,0 19,0 L19,0 Z" id="Fill-17" fill="#3BC3A1" sketch:type="MSShapeGroup"></path>
            <path d="M22.444,8 C21.786,8.66 20.942,9.129 20,9.341 C20.942,9.129 21.786,8.66 22.444,8" id="Fill-23" fill="#FEFEFE" sketch:type="MSShapeGroup"></path>
            <path d="M20.009,9 C19.683,9.067 19.345,9.102 19,9.102 C19.345,9.102 19.683,9.067 20.009,9" id="Fill-24" fill="#FEFEFE" sketch:type="MSShapeGroup"></path>
            <path d="M15.419,1 L15.419,1 C14.553,1.887 14.016,3.093 14,4.427 C14.017,3.093 14.554,1.887 15.419,1" id="Fill-25" fill="#FEFEFE" sketch:type="MSShapeGroup"></path>
            <path d="M15.202,1 C15.135,1.062 15.064,1.117 15,1.182 C15.064,1.117 15.135,1.061 15.202,1" id="Fill-28" fill="#FEFEFE" sketch:type="MSShapeGroup"></path>
            <path d="M20.087,9 C20.057,9.006 20.03,9.021 20,9.027 C20.03,9.021 20.057,9.006 20.087,9" id="Fill-32" fill="#FEFEFE" sketch:type="MSShapeGroup"></path>
            <path d="M14.003,4 C14.003,4.01 14,4.02 14,4.03 C14,4.02 14.003,4.01 14.003,4" id="Fill-33" fill="#FEFEFE" sketch:type="MSShapeGroup"></path>
            <path d="M13.313,7.583 C13.198,7.395 13.094,7.201 13,7 C13.094,7.201 13.198,7.395 13.313,7.583" id="Fill-35" fill="#FEFEFE" sketch:type="MSShapeGroup"></path>
            <path d="M13.133,6.612 C13.078,6.412 13.034,6.208 13,6 C13.034,6.208 13.078,6.412 13.133,6.612" id="Fill-36" fill="#FEFEFE" sketch:type="MSShapeGroup"></path>
            <path d="M13.261,6.706 C13.16,6.477 13.073,6.242 13,6 C13.072,6.242 13.16,6.477 13.261,6.706" id="Fill-37" fill="#FEFEFE" sketch:type="MSShapeGroup"></path>
            <path d="M13.014,4 C13.01,4.089 13,4.177 13,4.267 C13,4.177 13.01,4.089 13.014,4" id="Fill-38" fill="#FEFEFE" sketch:type="MSShapeGroup"></path>
            <path d="M14,0.824 L14,0.824 C14.243,0.524 14.515,0.248 14.811,0 L14.81,0 C14.514,0.248 14.243,0.524 14,0.824" id="Fill-40" fill="#FEFEFE" sketch:type="MSShapeGroup"></path>
            <path d="M13.055,5.77 C13.022,5.518 13,5.262 13,5 C13,5.262 13.022,5.518 13.055,5.77" id="Fill-41" fill="#FEFEFE" sketch:type="MSShapeGroup"></path>
            <path d="M14.003,5 C14.003,5.01 14,5.02 14,5.03 C14,5.02 14.003,5.01 14.003,5" id="Fill-42" fill="#FEFEFE" sketch:type="MSShapeGroup"></path>
            <path d="M22.729,9.605 L22.729,9.605 C22.901,10.377 23,11.177 23,12 C23,15.124 21.684,17.94 19.584,19.942 L19.585,19.932 C14.912,18.002 14.541,17.277 14.414,17.022 L14.362,16.917 L14.362,15.845 L14.493,15.702 C15.077,15.063 15.539,14.211 15.829,13.237 L15.872,13.091 L15.989,12.995 C16.344,12.701 16.548,12.265 16.548,11.796 C16.548,11.476 16.454,11.177 16.267,10.911 L16.177,10.782 L16.177,10.345 L16.176,10.344 C15.7,10.102 15.262,9.797 14.869,9.441 C14.853,9.426 14.836,9.411 14.819,9.396 C14.442,9.046 14.109,8.65 13.831,8.214 C13.809,8.18 13.789,8.144 13.768,8.109 C13.653,7.921 13.548,7.727 13.455,7.526 C13.438,7.49 13.419,7.456 13.403,7.419 C13.302,7.191 13.214,6.956 13.142,6.713 C13.129,6.67 13.12,6.626 13.108,6.584 C13.053,6.383 13.009,6.179 12.975,5.971 C12.964,5.904 12.953,5.837 12.944,5.77 C12.912,5.517 12.889,5.261 12.889,5 C12.889,4.91 12.899,4.823 12.903,4.733 C12.618,4.696 12.319,4.673 12,4.673 C9.344,4.673 7.821,6.073 7.821,8.512 L7.821,10.782 L7.731,10.911 C7.548,11.174 7.451,11.48 7.451,11.796 C7.451,12.264 7.654,12.701 8.009,12.994 L8.125,13.09 L8.169,13.236 C8.459,14.211 8.922,15.063 9.506,15.701 L9.637,15.845 L9.637,16.917 L9.585,17.022 C9.458,17.277 9.088,18 4.414,19.932 L4.426,19.953 C2.319,17.951 1,15.13 1,12 C1,5.935 5.934,1 12,1 C12.763,1 13.509,1.079 14.229,1.228 C14.473,0.928 14.744,0.652 15.04,0.404 C14.067,0.149 13.052,0 12,0 C5.373,0 0,5.373 0,12 C0,16.841 2.872,21.001 7,22.898 C8.523,23.599 10.213,24 12,24 C13.787,24 15.476,23.599 17,22.898 C21.127,21.001 24,16.841 24,12 C24,10.88 23.834,9.801 23.548,8.773 C23.302,9.076 23.028,9.355 22.729,9.605" id="Fill-43" fill="#323536" sketch:type="MSShapeGroup"></path>
            <path d="M16,10 L16,10 C16.001,10.001 16.003,10.001 16.004,10.002 C16.003,10.001 16.001,10 16,10" id="Fill-44" fill="#FEFEFE" sketch:type="MSShapeGroup"></path>
            <path d="M17.328,9.126 C17.218,9.085 17.106,9.048 17,9 C17.107,9.048 17.218,9.085 17.328,9.126" id="Fill-45" fill="#FEFEFE" sketch:type="MSShapeGroup"></path>
            <path d="M17.297,9.067 C17.196,9.048 17.098,9.024 17,9 C17.099,9.024 17.196,9.048 17.297,9.067" id="Fill-46" fill="#FEFEFE" sketch:type="MSShapeGroup"></path>
            <path d="M17.538,9.167 C17.354,9.122 17.176,9.064 17,9 C17.175,9.065 17.354,9.121 17.538,9.167" id="Fill-47" fill="#FEFEFE" sketch:type="MSShapeGroup"></path>
            <path d="M18.889,9.089 C18.584,9.089 18.289,9.051 18,9 C18.289,9.052 18.584,9.089 18.889,9.089" id="Fill-48" fill="#FEFEFE" sketch:type="MSShapeGroup"></path>
            <path d="M16.307,9.903 C15.831,9.66 15.393,9.355 15,9 C15.393,9.356 15.831,9.66 16.307,9.903" id="Fill-49" fill="#FEFEFE" sketch:type="MSShapeGroup"></path>
            <path d="M14.988,9.182 C14.61,8.832 14.278,8.435 14,8 C14.278,8.436 14.611,8.832 14.988,9.182" id="Fill-50" fill="#FEFEFE" sketch:type="MSShapeGroup"></path>
            <path d="M16,0.229 C16.106,0.15 16.211,0.071 16.324,0 C16.211,0.071 16.106,0.149 16,0.229" id="Fill-51" fill="#FEFEFE" sketch:type="MSShapeGroup"></path>
            <path d="M16.606,0 C16.396,0.096 16.194,0.207 16,0.329 C16.194,0.207 16.396,0.095 16.606,0" id="Fill-52" fill="#FEFEFE" sketch:type="MSShapeGroup"></path>
            <path d="M16.001,0 C16.001,0 16.001,0 16,0.001 L16.001,0 Z" id="Fill-53" fill="#FEFEFE" sketch:type="MSShapeGroup"></path>
            <path d="M15,1.32 C15.124,1.207 15.253,1.101 15.388,1 C15.252,1.1 15.124,1.207 15,1.32" id="Fill-54" fill="#FEFEFE" sketch:type="MSShapeGroup"></path>
        </g>
    </g>
</svg>