<?xml version="1.0" encoding="UTF-8" standalone="no"?>
<svg width="24px" height="24px" viewBox="0 0 24 24" version="1.1" xmlns="http://www.w3.org/2000/svg" xmlns:xlink="http://www.w3.org/1999/xlink" xmlns:sketch="http://www.bohemiancoding.com/sketch/ns">
    <!-- Generator: Sketch 3.4.4 (17249) - http://www.bohemiancoding.com/sketch -->
    <title>twitter signet</title>
    <desc>Created with Sketch.</desc>
    <defs></defs>
    <g id="Page-1" stroke="none" stroke-width="1" fill="none" fill-rule="evenodd" sketch:type="MSPage">
        <g id="twitter-signet" sketch:type="MSArtboardGroup" fill="#55ACEE">
            <path d="M24,19.7884817 C23.1174205,19.3968074 22.1683008,19.1320863 21.17248,19.012823 C22.1888422,19.6224472 22.9692412,20.5872978 23.3368803,21.736758 C22.3856538,21.1723074 21.3322468,20.7628832 20.2101927,20.5421944 C19.3125144,21.4988636 18.0328005,22.0968476 16.6166703,22.0968476 C13.8973001,22.0968476 11.6932215,19.8925935 11.6932215,17.1733988 C11.6932215,16.7873603 11.7363586,16.4114696 11.8206487,16.0513448 C7.72851361,16.256408 4.10057989,18.2171496 1.67212561,21.1956579 C1.2482873,20.4688071 1.0055121,19.6231495 1.0055121,18.7206782 C1.0055121,17.0122627 1.87437975,15.5055044 3.19589639,14.6222226 C2.38882862,14.6474517 1.62951529,14.8690359 0.9656582,15.2380795 C0.964903258,15.2173625 0.964903258,15.1968562 0.964903258,15.1762796 C0.964903258,12.7903128 2.66229308,10.8007781 4.91447725,10.3481642 C4.50168216,10.2356252 4.06681819,10.1761077 3.61773323,10.1761077 C3.30014857,10.1761077 2.99222015,10.2061474 2.69106864,10.2638916 C3.31803894,8.30789038 5.1360263,6.88421082 7.29094589,6.84435692 C5.60447639,5.52356011 3.48182617,4.73684064 1.17486483,4.73684064 C0.777712834,4.73684064 0.385494293,4.76022628 1.77635684e-15,4.80548767 C2.17985023,3.40852952 4.76754453,2.59368409 7.54836345,2.59368409 C16.6045035,2.59368409 21.5562186,10.0958732 21.5562186,16.6027683 C21.5562186,16.8161359 21.5513027,17.0280462 21.5423488,17.2392017 C22.5039338,17.9339411 23.3385833,18.8008775 23.9990695,19.7884466" id="path22" sketch:type="MSShapeGroup" transform="translate(12.000000, 12.345266) scale(1, -1) translate(-12.000000, -12.345266) "></path>
        </g>
    </g>
</svg>